# xmcd CD database file
#
# Track frame offsets:
#	150
#	20472
#	40897
#
# Disc length: 568 seconds
#
# Revision: 1
# Processed by: cddbd v1.5.1PL2 Copyright (c) Steve Scherf et al.
# Submitted via: CDex 1.51
#
DISCID=1b023603
DTITLE=AAA - BLOOD on FIRE
DYEAR=2005
DGENRE=JPop
TTITLE0=BLOOD on FIRE
TTITLE1=BLOOD on FIRE (Instrumental)
TTITLE2=シークレットトラック
EXTD=YEAR: 2005
EXTT0=
EXTT1=
EXTT2=
PLAYORDER=
